<?xml version="1.0" encoding="UTF-8"?>
<svg id="Layer_2" xmlns="http://www.w3.org/2000/svg" viewBox="0 0 62.45 52.33">
  <defs>
    <style>
      .cls-1, .cls-2 {
        fill: none;
        stroke: #1c1c1c;
        stroke-miterlimit: 10;
        stroke-width: 2px;
      }

      .cls-2 {
        stroke-linecap: round;
      }
    </style>
  </defs>
  <g id="Icon_and_text">
    <g>
      <path class="cls-1" d="M17.84,8.61l10.88,5.07s-3.32,9.49-6.28,15.83c-2.96,6.34-6.72,5.69-9.73,4.29h0c-3-1.4-5.92-3.86-2.96-10.21,2.96-6.34,8.09-14.98,8.09-14.98Z"/>
      <line class="cls-1" x1="5.53" y1="49.22" x2="12.72" y2="33.81"/>
      <line class="cls-2" x1="10.06" y1="51.33" x2="1" y2="47.1"/>
      <path class="cls-1" d="M44.6,8.61l-10.88,5.07s3.32,9.49,6.28,15.83c2.96,6.34,6.72,5.69,9.73,4.29h0c3-1.4,5.92-3.86,2.96-10.21-2.96-6.34-8.09-14.98-8.09-14.98Z"/>
      <line class="cls-1" x1="56.92" y1="49.22" x2="49.73" y2="33.81"/>
      <line class="cls-2" x1="52.38" y1="51.33" x2="61.45" y2="47.1"/>
      <line class="cls-2" x1="31.22" y1="6" x2="31.22" y2="1"/>
      <line class="cls-2" x1="35.22" y1="8" x2="38.74" y2="4.46"/>
      <line class="cls-2" x1="27.22" y1="8" x2="23.7" y2="4.46"/>
      <path class="cls-2" d="M16.22,18s1,2,3,2,3-1,5-1,2,1,2,1"/>
      <path class="cls-2" d="M50.22,19s-1-1-3-1-3,1-5,1-3-1-3-1"/>
    </g>
  </g>
</svg>