<?xml version="1.0" encoding="UTF-8"?>
<svg id="Layer_2" xmlns="http://www.w3.org/2000/svg" viewBox="0 0 42 61">
  <defs>
    <style>
      .cls-1 {
        fill: none;
        stroke: #1c1c1c;
        stroke-linecap: round;
        stroke-linejoin: round;
        stroke-width: 2px;
      }
    </style>
  </defs>
  <g id="Icon_and_text">
    <g>
      <path class="cls-1" d="M5,43c-2.21,0-4,1.79-4,4v13h40v-12c0-2.76-2.24-5-5-5H14"/>
      <path class="cls-1" d="M9,28c-2.21,0-4,1.79-4,4v11h4"/>
      <path class="cls-1" d="M33,28c2.21,0,4,1.79,4,4v11"/>
      <path class="cls-1" d="M17,28h16v-9c0-2.21-1.79-4-4-4H13c-2.21,0-4,1.79-4,4v9h3"/>
      <path class="cls-1" d="M24,1c-1.66,0-3,1.34-3,3,0-1.66-1.34-3-3-3s-3,1.34-3,3c0,2.5,1.5,4.25,3,5.37,1.5,1.13,3,1.63,3,1.63,0,0,6-2,6-7,0-1.66-1.34-3-3-3Z"/>
      <line class="cls-1" x1="21" y1="11" x2="21" y2="15"/>
      <path class="cls-1" d="M25,19c0,2.21-1.79,4-4,4s-4-1.79-4-4"/>
      <path class="cls-1" d="M21,32c0,2.21-1.79,4-4,4s-4-1.79-4-4"/>
      <path class="cls-1" d="M29,32c0,2.21-1.79,4-4,4s-4-1.79-4-4"/>
      <path class="cls-1" d="M37,32c0,2.21-1.79,4-4,4s-4-1.79-4-4"/>
      <path class="cls-1" d="M17,48c0,2.21-1.79,4-4,4s-4-1.79-4-4"/>
      <path class="cls-1" d="M25,48c0,2.21-1.79,4-4,4s-4-1.79-4-4"/>
      <path class="cls-1" d="M33,48c0,2.21-1.79,4-4,4s-4-1.79-4-4"/>
      <path class="cls-1" d="M41,48c0,2.21-1.79,4-4,4s-4-1.79-4-4"/>
      <path class="cls-1" d="M17,19c0,2.21-1.79,4-4,4-.35,0-.68-.06-1-.14"/>
      <g>
        <path class="cls-1" d="M33,19c0,1.86-1.28,3.41-3,3.86"/>
        <path class="cls-1" d="M30,22.86c-.32.08-.65.14-1,.14-2.21,0-4-1.79-4-4"/>
      </g>
      <path class="cls-1" d="M13,32c0,2.21-1.79,4-4,4-.35,0-.68-.06-1-.14"/>
      <path class="cls-1" d="M9,48c0,2.21-1.79,4-4,4-.35,0-.68-.06-1-.14"/>
    </g>
  </g>
</svg>